<svg xmlns="http://www.w3.org/2000/svg" viewBox="0 0 199.3 120.8"><g fill="#FFF"><path d="M48 35.9c-5-5.7-14.6-8.6-28.7-8.6H3.2C1 27.3 0 28.5 0 30.8V57c0 .5.1.8.1 1.2 0 .1.2.6.3.8.5 1 1.5 1.5 3 1.5H10.6c2 0 2.9-1.2 2.9-3.4V38.7h5c9.5 0 15.7 1.8 18.5 5.3 2.8 3.5 4.2 9 4.2 16.4v.1c0 7.3-1.4 12.8-4.2 16.3-2.8 3.6-9 5.3-18.5 5.3h-15c-2.3 0-3.5 1-3.5 3v5c0 .5.1.9.2 1.3 0 .2.1.3.2.5s.2.3.2.4c.2.4.5.7.9.9.1.1.2.2.4.2.1 0 .2 0 .3.1.3.1.6.1 1 .1h16.1c13.9 0 23.3-2.8 28.4-8.4l.3-.3c5-5.8 7.5-13.9 7.5-24.4v-.1c0-10.6-2.5-18.8-7.5-24.5M151.3 84.9c5 5.7 14.6 8.6 28.7 8.6h16.1c2.2 0 3.2-1.2 3.2-3.5V63.9c0-.5-.1-.8-.1-1.2 0-.1-.2-.6-.3-.8-.5-1-1.5-1.5-3-1.5h-7.1c-2 0-2.9 1.2-2.9 3.4v18.3h-5c-9.5 0-15.7-1.8-18.5-5.3-2.8-3.5-4.2-9-4.2-16.4v-.1c0-7.3 1.4-12.8 4.2-16.3 2.8-3.6 9-5.3 18.5-5.3h15c2.3 0 3.5-1 3.5-3v-5c0-.5-.1-.9-.2-1.3 0-.2-.1-.3-.2-.5s-.2-.3-.2-.4c-.2-.4-.5-.7-.9-.9-.1-.1-.2-.2-.4-.2-.1 0-.2 0-.3-.1-.3-.1-.6-.1-1-.1H180c-13.9 0-23.3 2.8-28.4 8.4l-.3.3c-5 5.8-7.5 13.9-7.5 24.4v.1c0 10.7 2.5 18.8 7.5 24.5M101.4 118.1c0 1.5-1.2 2.7-2.7 2.7H86.8c-1.5 0-2.7-1.2-2.7-2.7v-6c0-1.5 1.2-2.7 2.7-2.7h11.8c1.5 0 2.7 1.2 2.7 2.7v6zM115.2 8.7c0 1.5-1.2 2.7-2.7 2.7h-11.8c-1.5 0-2.7-1.2-2.7-2.7v-6c0-1.5 1.2-2.7 2.7-2.7h11.8c1.5 0 2.7 1.2 2.7 2.7v6zM123.5 90.8c0 1.5-1.2 2.7-2.7 2.7h-34c-1.5 0-2.7-1.2-2.7-2.7v-6c0-1.5 1.2-2.7 2.7-2.7h34c1.5 0 2.7 1.2 2.7 2.7v6zM115.2 36c0 1.5-1.2 2.7-2.7 2.7h-34c-1.5 0-2.7-1.2-2.7-2.7v-6c0-1.5 1.2-2.7 2.7-2.7h34c1.5 0 2.7 1.2 2.7 2.7v6zM123.5 63.4c0 1.5-1.2 2.7-2.7 2.7H78.5c-1.5 0-2.7-1.2-2.7-2.7v-6c0-1.5 1.2-2.7 2.7-2.7h42.3c1.5 0 2.7 1.2 2.7 2.7v6z"/></g></svg>